<svg width="42" height="46" viewBox="0 0 42 46" fill="none" xmlns="http://www.w3.org/2000/svg">
<path d="M19.5026 22.9974C25.2555 22.9974 29.9193 18.3337 29.9193 12.5807C29.9193 6.82777 25.2555 2.16406 19.5026 2.16406C13.7496 2.16406 9.08594 6.82777 9.08594 12.5807C9.08594 18.3337 13.7496 22.9974 19.5026 22.9974Z" stroke="#166534" stroke-width="3.125" stroke-linecap="round" stroke-linejoin="round"/>
<path opacity="0.4" d="M1.60547 43.8294C1.60547 35.7669 9.62628 29.2461 19.5014 29.2461C21.5014 29.2461 23.4389 29.5169 25.2514 30.0169" stroke="#166534" stroke-width="3.125" stroke-linecap="round" stroke-linejoin="round"/>
<path d="M40.3346 35.4974C40.3346 36.1641 40.2513 36.8099 40.0846 37.4349C39.8971 38.2682 39.5638 39.0807 39.1263 39.7891C37.6888 42.2057 35.043 43.8307 32.0013 43.8307C29.8555 43.8307 27.918 43.0182 26.4596 41.6849C25.8346 41.1432 25.293 40.4974 24.8763 39.7891C24.1055 38.5391 23.668 37.0599 23.668 35.4974C23.668 33.2474 24.5638 31.1849 26.0221 29.6849C27.543 28.1224 29.668 27.1641 32.0013 27.1641C34.4596 27.1641 36.6888 28.2266 38.1888 29.9349C39.5221 31.4141 40.3346 33.3724 40.3346 35.4974Z" stroke="#166534" stroke-width="3.125" stroke-miterlimit="10" stroke-linecap="round" stroke-linejoin="round"/>
<path d="M35.1066 35.457H28.8984" stroke="#166534" stroke-width="3.125" stroke-miterlimit="10" stroke-linecap="round" stroke-linejoin="round"/>
<path d="M32 32.4141V38.6432" stroke="#166534" stroke-width="3.125" stroke-miterlimit="10" stroke-linecap="round" stroke-linejoin="round"/>
</svg>
