<svg width="51" height="50" viewBox="0 0 51 50" fill="none" xmlns="http://www.w3.org/2000/svg">
<path d="M39.0938 13.0938V28.5063C39.3078 28.4938 39.5203 28.4734 39.7383 28.4734C40.0484 28.4734 40.3531 28.4937 40.6563 28.5195V11.5312H36.2227C36.1844 12.0633 36.1125 12.5859 36 13.0938H39.0938Z" fill="#2D2D2D"/>
<path d="M11.9062 28.5063V13.0938H15C14.8875 12.5859 14.8156 12.0633 14.7773 11.5312H10.3438V28.5203C10.6469 28.4945 10.9516 28.4742 11.2617 28.4742C11.4789 28.4734 11.6914 28.4937 11.9062 28.5063Z" fill="#2D2D2D"/>
<path d="M25.5 21.5234C30.6406 21.5234 34.9328 17.9164 36 13.0969C36.1125 12.5891 36.1844 12.0664 36.2227 11.5344C36.2406 11.2781 36.2617 11.0227 36.2617 10.7617C36.2617 4.81797 31.4437 0 25.5 0C19.5562 0 14.7383 4.81797 14.7383 10.7617C14.7383 11.0227 14.7594 11.2781 14.7773 11.5344C14.8156 12.0664 14.8875 12.5891 15 13.0969C16.0672 17.9164 20.3594 21.5234 25.5 21.5234ZM23.4859 10.0859H25.5H27.5141L25.5 14.5445L23.4859 10.0859ZM31.3664 12.8234C31.3664 15.5219 31.3664 16.1477 31.3664 16.1477C31.3664 16.1477 25.618 16.1477 25.6375 16.1477L28.4336 10.0859C28.4328 10.0859 31.3664 10.1258 31.3664 12.8234ZM25.5 3.63359C27.0984 3.63359 28.3937 4.92891 28.3937 6.52734C28.3937 8.12578 27.0984 9.42109 25.5 9.42109C23.9016 9.42109 22.6062 8.12578 22.6062 6.52734C22.6062 4.92891 23.9016 3.63359 25.5 3.63359ZM22.5672 10.0859L25.3633 16.1477C25.3828 16.1477 19.6344 16.1477 19.6344 16.1477C19.6344 16.1477 19.6344 15.5219 19.6344 12.8234C19.6344 10.125 22.5672 10.0859 22.5672 10.0859Z" fill="#166534"/>
<path d="M25.4992 9.42031C27.0974 9.42031 28.393 8.12474 28.393 6.52656C28.393 4.92839 27.0974 3.63281 25.4992 3.63281C23.901 3.63281 22.6055 4.92839 22.6055 6.52656C22.6055 8.12474 23.901 9.42031 25.4992 9.42031Z" fill="white"/>
<path d="M19.6328 16.1477C19.6328 16.1477 25.3813 16.1477 25.3617 16.1477L22.5656 10.0859C22.5656 10.0859 19.6328 10.125 19.6328 12.8234C19.6328 15.5219 19.6328 16.1477 19.6328 16.1477Z" fill="white"/>
<path d="M25.6368 16.1477C25.6172 16.1477 31.3657 16.1477 31.3657 16.1477C31.3657 16.1477 31.3657 15.5219 31.3657 12.8234C31.3657 10.125 28.4329 10.0859 28.4329 10.0859L25.6368 16.1477Z" fill="white"/>
<path d="M27.5125 10.0859H25.4984H23.4844L25.4984 14.5445L27.5125 10.0859Z" fill="white"/>
<path d="M39.0938 28.5094C33.4523 28.8445 28.9766 33.5125 28.9766 39.2383C28.9766 45.182 33.7953 50 39.7383 50C45.682 50 50.5 45.182 50.5 39.2383C50.5 33.6047 46.1695 28.9898 40.6563 28.5227C40.3531 28.4969 40.0484 28.4766 39.7383 28.4766C39.5211 28.4766 39.3086 28.4969 39.0938 28.5094ZM33.8727 44.625C33.8727 44.625 33.8727 43.9992 33.8727 41.3008C33.8727 38.6023 36.8055 38.5633 36.8055 38.5633L39.6016 44.625C39.6211 44.625 33.8727 44.625 33.8727 44.625ZM37.7242 38.5633H39.7383H41.7523L39.7383 43.0219L37.7242 38.5633ZM45.6047 41.3008C45.6047 43.9992 45.6047 44.625 45.6047 44.625C45.6047 44.625 39.8562 44.625 39.8758 44.625L42.6719 38.5633C42.6711 38.5633 45.6047 38.6023 45.6047 41.3008ZM42.632 35.0047C42.632 36.6031 41.3367 37.8984 39.7383 37.8984C38.1398 37.8984 36.8445 36.6031 36.8445 35.0047C36.8445 33.4062 38.1398 32.1109 39.7383 32.1109C41.3367 32.1102 42.632 33.4062 42.632 35.0047Z" fill="#E33183" fill-opacity="0.3875"/>
<path d="M39.7414 37.9008C41.3396 37.9008 42.6352 36.6052 42.6352 35.007C42.6352 33.4089 41.3396 32.1133 39.7414 32.1133C38.1432 32.1133 36.8477 33.4089 36.8477 35.007C36.8477 36.6052 38.1432 37.9008 39.7414 37.9008Z" fill="white"/>
<path d="M33.8711 41.3039C33.8711 44.0023 33.8711 44.6281 33.8711 44.6281C33.8711 44.6281 39.6195 44.6281 39.6 44.6281L36.8039 38.5664C36.8039 38.5664 33.8711 38.6055 33.8711 41.3039Z" fill="white"/>
<path d="M45.6047 44.6281C45.6047 44.6281 45.6047 44.0023 45.6047 41.3039C45.6047 38.6055 42.6719 38.5664 42.6719 38.5664L39.875 44.6281C39.8555 44.6281 45.6047 44.6281 45.6047 44.6281Z" fill="white"/>
<path d="M39.7367 38.5664H37.7227L39.7367 43.0242L41.7508 38.5664H39.7367Z" fill="white"/>
<path d="M11.2617 50C17.2055 50 22.0234 45.182 22.0234 39.2383C22.0234 33.5125 17.5477 28.8445 11.9062 28.5094C11.6922 28.4969 11.4797 28.4766 11.2617 28.4766C10.9516 28.4766 10.6469 28.4969 10.3438 28.5227C4.83047 28.9898 0.5 33.6047 0.5 39.2383C0.5 45.182 5.31797 50 11.2617 50ZM9.24766 38.5633H11.2617H13.2758L11.2617 43.0219L9.24766 38.5633ZM17.1273 41.3008C17.1273 43.9992 17.1273 44.625 17.1273 44.625C17.1273 44.625 11.3789 44.625 11.3984 44.625L14.1945 38.5633C14.1945 38.5633 17.1273 38.6023 17.1273 41.3008ZM11.2617 32.1102C12.8602 32.1102 14.1555 33.4055 14.1555 35.0039C14.1555 36.6023 12.8602 37.8977 11.2617 37.8977C9.66328 37.8977 8.36797 36.6023 8.36797 35.0039C8.36797 33.4062 9.66328 32.1102 11.2617 32.1102ZM5.39531 41.3008C5.39531 38.6023 8.32813 38.5633 8.32813 38.5633L11.125 44.625C11.1445 44.625 5.39609 44.625 5.39609 44.625C5.39609 44.625 5.39531 43.9992 5.39531 41.3008Z" fill="#E33183" fill-opacity="0.3875"/>
<path d="M11.2609 37.9008C12.8591 37.9008 14.1547 36.6052 14.1547 35.007C14.1547 33.4089 12.8591 32.1133 11.2609 32.1133C9.66276 32.1133 8.36719 33.4089 8.36719 35.007C8.36719 36.6052 9.66276 37.9008 11.2609 37.9008Z" fill="white"/>
<path d="M8.32734 38.5664C8.32734 38.5664 5.39453 38.6055 5.39453 41.3039C5.39453 44.0023 5.39453 44.6281 5.39453 44.6281C5.39453 44.6281 11.143 44.6281 11.1234 44.6281L8.32734 38.5664Z" fill="white"/>
<path d="M17.1274 44.6281C17.1274 44.6281 17.1274 44.0023 17.1274 41.3039C17.1274 38.6055 14.1946 38.5664 14.1946 38.5664L11.3985 44.6281C11.379 44.6281 17.1274 44.6281 17.1274 44.6281Z" fill="white"/>
<path d="M11.2602 38.5664H9.24609L11.2602 43.0242L13.2742 38.5664H11.2602Z" fill="white"/>
</svg>
